<svg width="587.91" height="587.91" xmlns="http://www.w3.org/2000/svg">

 <g>
  <title>background</title>
  <rect fill="none" id="canvas_background" height="402" width="582" y="-1" x="-1"/>
 </g>
 <g>
  <title>Layer 1</title>
  <g stroke="null" id="svg_1">
   <g stroke="null" id="svg_2">
    <g stroke="null" id="svg_3">
     <path stroke="null" id="svg_4" fill=" rgb(255, 255, 255)" d="m500.110678,501.46c-26.761972,26.936 -57.936087,48.088 -92.658993,62.871c-35.971738,15.314 -74.157,23.078 -113.496711,23.078c-39.340705,0 -77.525966,-7.766 -113.495717,-23.078c-34.721912,-14.783 -65.899008,-35.936 -92.659987,-62.871c-26.762965,-26.938 -47.777526,-58.316 -62.464471,-93.266c-15.212507,-36.207 -22.928046,-74.643 -22.928046,-114.239c0,-39.597 7.715539,-78.033 22.928046,-114.239c14.686945,-34.949 35.704486,-66.328 62.464471,-93.264s57.937081,-48.09 92.659987,-62.872c35.971738,-15.315 74.157,-23.079 113.495717,-23.079c39.339711,0 77.525966,7.765 113.496711,23.079c34.721912,14.782 65.897021,35.936 92.658993,62.872c26.761972,26.937 47.776533,58.315 62.463477,93.265c15.214494,36.205 22.92904,74.641 22.92904,114.239c0,39.598 -7.714545,78.032 -22.92904,114.239c-14.685951,34.949 -35.702499,66.327 -62.463477,93.265zm-206.155704,-458.119c-137.511648,0 -248.985588,112.204 -248.985588,250.615s111.474933,250.613 248.985588,250.613s248.986582,-112.203 248.986582,-250.613s-111.474933,-250.615 -248.986582,-250.615z"/>
     <path stroke="null" id="svg_5" fill=" rgb(255, 255, 255)" d="m293.954975,587.909c39.409256,0 77.659095,-7.778 113.690444,-23.117c34.782516,-14.81 66.011274,-35.998 92.81696,-62.979c26.806679,-26.983 47.858993,-58.416 62.569782,-93.425c15.240325,-36.269 22.967786,-74.77 22.967786,-114.432c0,-39.664 -7.727461,-78.165 -22.967786,-114.434c-14.712776,-35.011 -35.764096,-66.443 -62.569782,-93.424c-26.806679,-26.982 -58.035438,-48.171 -92.81696,-62.979c-36.033335,-15.34 -74.284168,-23.118 -113.690444,-23.118c-39.407269,0 -77.658102,7.778 -113.68945,23.118c-34.785496,14.809 -66.012268,35.998 -92.817953,62.979c-26.806679,26.983 -47.858993,58.416 -62.569782,93.423c-15.240325,36.271 -22.967786,74.772 -22.967786,114.434c0,39.661 7.727461,78.163 22.966793,114.434c14.713769,35.011 35.76509,66.443 62.570776,93.425c26.803699,26.979 58.031464,48.168 92.817953,62.979c36.033335,15.338 74.284168,23.116 113.68945,23.116zm0,-586.908c39.272153,0 77.392837,7.751 113.302978,23.039c34.663296,14.757 65.784756,35.875 92.501026,62.765c26.715277,26.89 47.695065,58.215 62.357173,93.106c15.189657,36.145 22.890293,74.515 22.890293,114.045c0,39.527 -7.700636,77.898 -22.8893,114.044c-14.661114,34.889 -35.641895,66.215 -62.358166,93.106c-26.715277,26.889 -57.836737,48.006 -92.501026,62.765c-35.907161,15.287 -74.027844,23.038 -113.302978,23.038c-39.271159,0 -77.391843,-7.751 -113.302978,-23.039c-34.66727,-14.759 -65.78873,-35.876 -92.501026,-62.764c-26.715277,-26.89 -47.696059,-58.216 -62.358166,-93.106c-15.188663,-36.147 -22.8893,-74.518 -22.8893,-114.045s7.700636,-77.897 22.8893,-114.044c14.661114,-34.888 35.640902,-66.213 62.358166,-93.105c26.714284,-26.89 57.835744,-48.007 92.501026,-62.765c35.910141,-15.289 74.029831,-23.04 113.302978,-23.04zm0,544.068c66.639168,0 129.290417,-26.12 176.411238,-73.55c47.121815,-47.428 73.072095,-110.489 73.072095,-177.563c0,-67.075 -25.951274,-130.136 -73.072095,-177.565s-109.77207,-73.55 -176.411238,-73.55c-66.639168,0 -129.289423,26.121 -176.410244,73.55c-47.121815,47.429 -73.072095,110.49 -73.072095,177.565c0,67.075 25.95028,130.135 73.072095,177.564c47.120821,47.429 109.77207,73.549 176.410244,73.549zm0,-501.228c66.373902,0 128.774789,26.017 175.708832,73.257c46.933049,47.241 72.780999,110.05 72.780999,176.858s-25.84795,129.617 -72.780999,176.857s-109.334929,73.257 -175.708832,73.257s-128.774789,-26.017 -175.707838,-73.257c-46.933049,-47.239 -72.780999,-110.049 -72.780999,-176.857s25.84795,-129.617 72.780999,-176.858c46.934043,-47.241 109.333936,-73.257 175.707838,-73.257z"/>
    </g>
    <g stroke="null" id="svg_6">
     <path stroke="null" id="svg_7" fill=" rgb(255, 255, 255)" d="m362.252297,424.009c-10.318515,8.51 -23.292662,13.197 -36.53108,13.197c-14.840938,0 -28.970527,-5.656 -39.787781,-15.926c-5.609314,-5.324 -10.028412,-11.613 -13.135094,-18.688c-3.261668,-7.428 -4.914856,-15.354 -4.914856,-23.557l0,-6.682l-113.065531,0c-30.405145,0 -55.141365,-24.898 -55.141365,-55.5l0,-45.705c0,-30.603 24.736221,-55.5 55.141365,-55.5l113.065531,0l0,-5.69c0,-8.2 1.651201,-16.122 4.910882,-23.547c3.104695,-7.074 7.520813,-13.361 13.127146,-18.686c10.817253,-10.276 24.950817,-15.936 39.796722,-15.936c0,0 0.003974,0 0.004968,0c13.122179,0.001 26.005917,4.615 36.279724,12.992l106.187514,86.578c0.645777,0.528 1.277644,1.074 1.891628,1.639c11.427264,10.491 17.981398,25.437 17.981398,41.003c0,15.568 -6.554135,30.514 -17.981398,41.004c-0.556361,0.512 -1.125638,1.008 -1.708824,1.488l-106.120949,87.516zm79.149349,-139.361l-106.188508,-86.578c-2.909968,-2.372 -6.240188,-3.44 -9.492915,-3.44c-7.858603,0 -15.275098,6.225 -15.275098,15.329l0,35.87c0,6.992 -5.631171,12.661 -12.577739,12.661l-143.048437,0c-6.946568,0 -12.579726,5.667 -12.579726,12.66l0,45.705c0,6.992 5.633158,12.66 12.579726,12.66l143.047443,0c6.946568,0 12.578733,5.668 12.578733,12.66l0,36.863c0,9.109 7.421462,15.328 15.276092,15.328c3.280545,0 6.633615,-1.084 9.557492,-3.492l106.122936,-87.518c5.468237,-5.023 5.468237,-13.687 0,-18.708z"/>
     <path stroke="null" id="svg_8" fill=" rgb(255, 255, 255)" d="m325.721217,437.706c13.352671,0 26.43809,-4.728 36.84602,-13.311l106.121943,-87.515c0.589147,-0.486 1.165378,-0.988 1.728694,-1.506c11.529594,-10.585 18.142346,-25.664 18.142346,-41.373c0,-15.708 -6.612751,-30.788 -18.143339,-41.373c-0.60703,-0.559 -1.250819,-1.116 -1.913485,-1.657l-106.188508,-86.578c-10.362229,-8.448 -23.357239,-13.102 -36.592677,-13.103c-14.978041,0 -29.231819,5.708 -40.141467,16.072c-5.654022,5.371 -10.108886,11.712 -13.240405,18.848c-3.287499,7.487 -4.953603,15.477 -4.953603,23.749l0,5.19l-112.568779,0c-30.679351,0 -55.638116,25.122 -55.638116,56l0,45.705c0,30.879 24.958765,56 55.638116,56l112.568779,0l0,6.182c0,8.274 1.66809,16.268 4.957577,23.759c3.1345,7.14 7.593338,13.481 13.248353,18.85c10.909649,10.357 25.16144,16.061 40.128552,16.061zm-0.002981,-285.416c13.012893,0.001 25.786353,4.576 35.972732,12.88l106.187514,86.578c0.64677,0.528 1.27665,1.073 1.869771,1.619c11.324933,10.396 17.819457,25.207 17.819457,40.634c0,15.428 -6.494525,30.239 -17.819457,40.635c-0.5504,0.506 -1.112723,0.996 -1.688954,1.471l-106.121943,87.516c-10.231087,8.438 -23.092968,13.084 -36.21614,13.084c-14.712776,0 -28.722152,-5.607 -39.448003,-15.789c-5.558645,-5.276 -9.939991,-11.509 -13.020841,-18.526c-3.232857,-7.362 -4.872135,-15.221 -4.872135,-23.354l0,-7.182l-113.562282,0c-30.130938,0 -54.644614,-24.673 -54.644614,-55l0,-45.705c0,-30.327 24.513676,-55 54.644614,-55l113.562282,0l0,-6.19c0,-8.132 1.637292,-15.986 4.868161,-23.345c3.078864,-7.013 7.457228,-13.246 13.013887,-18.524c10.724857,-10.191 24.737214,-15.802 39.455951,-15.802zm0.002981,242.576c3.595485,0 7.009159,-1.247 9.872432,-3.605l106.122936,-87.518c2.730144,-2.507 4.283982,-6.052 4.283982,-9.744c0,-3.69 -1.554831,-7.233 -4.264112,-9.721l-106.211358,-86.597c-2.849365,-2.323 -6.240188,-3.551 -9.805868,-3.551l0,0l0,0c-4.007788,0 -7.989746,1.599 -10.925545,4.387c-3.125558,2.969 -4.846304,7.032 -4.846304,11.442l0,35.87c0,6.706 -5.419555,12.161 -12.080988,12.161l-143.048437,0c-7.21084,0 -13.076477,5.904 -13.076477,13.16l0,45.705c0,7.257 5.865638,13.16 13.076477,13.16l143.048437,0c6.662427,0 12.081982,5.455 12.081982,12.16l0,36.863c0,7.612 6.029566,15.828 15.772843,15.828zm-0.001987,-199.736c3.334194,0 6.509427,1.151 9.179961,3.329l106.188508,86.578c2.481769,2.279 3.91738,5.552 3.91738,8.962c0,3.412 -1.435611,6.687 -3.939237,8.988l-106.103066,87.5c-2.68345,2.21 -5.878553,3.379 -9.242552,3.379c-7.107516,0 -14.77934,-5.669 -14.77934,-14.828l0,-36.863c0,-7.257 -5.865638,-13.16 -13.075484,-13.16l-143.048437,0c-6.662427,0 -12.082975,-5.455 -12.082975,-12.16l0,-45.705c0,-6.705 5.420549,-12.16 12.082975,-12.16l143.04943,0c7.208853,0 13.07449,-5.904 13.07449,-13.161l0,-35.87c0,-4.132 1.610467,-7.937 4.534345,-10.715c2.752995,-2.615 6.486577,-4.114 10.244002,-4.114l0,0z"/>
    </g>
   </g>
  </g>
 </g>
</svg>